<svg width="23" height="22" viewBox="0 0 23 22" fill="none" xmlns="http://www.w3.org/2000/svg">
<g opacity="0.5">
<path d="M16.7109 22.0016L11.8828 17.1734L16.9473 12.1016L17.7822 12.9497L14.1568 16.575H22.3328V17.7719H14.1568L17.5487 21.1638L16.7109 22.0016Z" fill="#41A815"/>
<path fill-rule="evenodd" clip-rule="evenodd" d="M6.71281 7.095C7.48281 7.865 8.47281 8.25 9.68281 8.25C10.8928 8.25 11.8828 7.865 12.6528 7.095C13.4228 6.325 13.8078 5.335 13.8078 4.125C13.8078 2.915 13.4228 1.925 12.6528 1.155C11.8828 0.385 10.8928 0 9.68281 0C8.47281 0 7.48281 0.385 6.71281 1.155C5.94281 1.925 5.55781 2.915 5.55781 4.125C5.55781 5.335 5.94281 6.325 6.71281 7.095ZM0.882812 14.4925V17.0775H10.0006L15.8191 11.2591C14.8668 10.88 13.9489 10.5783 13.0653 10.3538C11.947 10.0696 10.8195 9.9275 9.68281 9.9275C8.54615 9.9275 7.41406 10.065 6.28656 10.34C5.15906 10.615 3.98115 11.0275 2.75281 11.5775C2.20281 11.8342 1.75365 12.21 1.40531 12.705C1.05698 13.2 0.882812 13.7958 0.882812 14.4925Z" fill="#41A815"/>
</g>
</svg>
